<?xml version="1.0" standalone="no"?>
<!DOCTYPE svg PUBLIC "-//W3C//DTD SVG 20010904//EN"
 "http://www.w3.org/TR/2001/REC-SVG-20010904/DTD/svg10.dtd">
<svg version="1.0" xmlns="http://www.w3.org/2000/svg"
 width="24.000000pt" height="24.000000pt" viewBox="0 0 24.000000 24.000000"
 preserveAspectRatio="xMidYMid meet">

<g transform="translate(0.000000,24.000000) scale(0.100000,-0.100000)"
fill="#000000" stroke="none">
<path d="M0 120 l0 -120 56 0 56 0 -31 39 c-59 74 -66 128 -22 172 l29 29 -44
0 -44 0 0 -120z"/>
<path d="M181 211 c44 -44 37 -98 -22 -172 l-31 -39 56 0 56 0 0 120 0 120
-44 0 -44 0 29 -29z"/>
<path d="M86 184 c-20 -20 -20 -48 0 -68 30 -31 84 -9 84 34 0 24 -26 50 -50
50 -10 0 -26 -7 -34 -16z"/>
</g>
</svg>
